<svg width="179" height="37" viewBox="0 0 179 37" fill="none" xmlns="http://www.w3.org/2000/svg">
<g clip-path="url(#clip0_917_126)">
<path d="M83.8687 34.0513H46.9161C44.1166 34.0513 41.8262 31.7608 41.8262 28.9612C41.8262 26.1617 44.1166 23.8712 46.9161 23.8712H83.8687C86.6681 23.8712 88.9587 26.1617 88.9587 28.9612C88.9587 31.7608 86.6681 34.0513 83.8687 34.0513Z" fill="white"/>
<path d="M42.3496 16.9453H42.0702L35.0586 0.90015H36.9942L42.2637 13.375L47.4904 0.90015H49.3614L42.3496 16.9453Z" fill="white"/>
<path d="M55.4912 16.666V0.900326H64.7185V2.44905H57.2118V7.89074H63.9653V9.4392H57.2118V15.1175H64.7185V16.666H55.4912Z" fill="white"/>
<path d="M80.0111 5.63225C80.0111 5.17366 79.9246 4.74316 79.7528 4.34159C79.5804 3.94055 79.3293 3.59263 78.9996 3.29869C78.6699 3.00475 78.2577 2.77166 77.7635 2.59955C77.2686 2.42738 76.6984 2.34142 76.0529 2.34142C75.6803 2.34142 75.2964 2.35232 74.9027 2.37373C74.5082 2.39513 74.1673 2.44184 73.8806 2.5136V8.92307C74.1389 8.95194 74.4468 8.97672 74.8056 8.99813C75.1643 9.0196 75.494 9.0307 75.7953 9.0307C77.2719 9.0307 78.3442 8.72229 79.0108 8.10573C79.6775 7.48938 80.0111 6.66457 80.0111 5.63225ZM80.9143 16.666L76.7202 10.4501C76.5478 10.4646 76.376 10.4752 76.2036 10.4824C76.0318 10.4899 75.8521 10.4932 75.6658 10.4932C75.4081 10.4932 75.1101 10.4899 74.7738 10.4824C74.4362 10.4752 74.1389 10.4646 73.8806 10.4501V16.666H72.1602V1.05103C72.7482 0.979278 73.3355 0.918628 73.9242 0.868085C74.5116 0.818005 75.1352 0.792964 75.7953 0.792964C76.8127 0.792964 77.702 0.911161 78.4625 1.14756C79.2223 1.38421 79.8526 1.71429 80.3547 2.13707C80.8568 2.56031 81.2327 3.06203 81.4838 3.64271C81.7349 4.22339 81.8604 4.85105 81.8604 5.52462C81.8604 6.62896 81.5664 7.57533 80.9784 8.3638C80.3904 9.15246 79.5374 9.7262 78.4189 10.0847L83.0007 16.666H80.9143Z" fill="white"/>
<path d="M95.024 2.44905V16.666H93.3029V2.44905H88.0332V0.900326H100.272V2.44905H95.024Z" fill="white"/>
<path d="M106.938 16.666V0.900326H108.659V16.666H106.938Z" fill="white"/>
<path d="M129.544 15.4182C128.912 15.8053 128.149 16.1532 127.253 16.4616C126.356 16.7695 125.385 16.9238 124.339 16.9238C123.12 16.9238 122.001 16.7228 120.983 16.3217C119.965 15.9204 119.083 15.3573 118.338 14.6331C117.592 13.9094 117.011 13.049 116.595 12.0523C116.179 11.0559 115.972 9.96955 115.972 8.79378C115.972 7.63236 116.183 6.55359 116.606 5.55661C117.029 4.56016 117.613 3.7 118.359 2.97582C119.105 2.25191 119.99 1.6818 121.015 1.26576C122.04 0.849989 123.148 0.642005 124.339 0.642005C125.385 0.642005 126.356 0.796342 127.253 1.10449C128.149 1.41316 128.912 1.76049 129.544 2.14739L128.834 3.61022C128.159 3.22305 127.407 2.90044 126.575 2.64237C125.743 2.38404 124.948 2.25528 124.188 2.25528C123.198 2.25528 122.309 2.42018 121.521 2.75C120.732 3.07982 120.065 3.53866 119.52 4.12635C118.975 4.71449 118.56 5.40617 118.273 6.20184C117.986 6.99777 117.843 7.86155 117.843 8.79378C117.843 9.72595 117.993 10.5897 118.295 11.3854C118.596 12.1811 119.029 12.8696 119.596 13.4503C120.162 14.031 120.847 14.4863 121.65 14.8161C122.453 15.1462 123.349 15.3106 124.339 15.3106C125.098 15.3106 125.894 15.1818 126.726 14.9237C127.558 14.6657 128.31 14.343 128.985 13.9556L129.544 15.4182Z" fill="white"/>
<path d="M141.739 4.08353L138.836 10.8587H144.643L141.739 4.08353ZM147.138 16.666L145.267 12.2998H138.212L136.341 16.666H134.556L141.632 0.620857H141.911L148.988 16.666H147.138Z" fill="white"/>
<path d="M155.117 16.666V0.900326H156.838V15.1175H164.344V16.666H155.117Z" fill="white"/>
<path d="M178.948 12.4072C178.948 13.0524 178.826 13.6475 178.583 14.1923C178.338 14.7373 178.002 15.2138 177.571 15.6226C177.141 16.0312 176.632 16.3504 176.044 16.5798C175.456 16.809 174.819 16.9238 174.13 16.9238C173.227 16.9238 172.413 16.7948 171.689 16.5367C170.965 16.2787 170.259 15.9204 169.57 15.4613L170.409 13.9556C171.011 14.3859 171.642 14.7268 172.302 14.9774C172.962 15.2285 173.6 15.3537 174.216 15.3537C174.718 15.3537 175.155 15.2783 175.528 15.1279C175.901 14.9774 176.21 14.773 176.453 14.5149C176.697 14.2568 176.88 13.9631 177.002 13.6331C177.123 13.3034 177.185 12.9592 177.185 12.6007C177.185 12.2565 177.141 11.941 177.055 11.6543C176.969 11.3676 176.815 11.0951 176.593 10.837C176.37 10.5789 176.055 10.3247 175.647 10.0733C175.238 9.82301 174.711 9.55378 174.066 9.2671C173.377 8.96589 172.796 8.66112 172.323 8.35271C171.85 8.04483 171.466 7.71495 171.172 7.3632C170.878 7.01224 170.664 6.63954 170.528 6.24491C170.391 5.85088 170.323 5.41674 170.323 4.94369C170.323 4.37047 170.438 3.82514 170.668 3.30927C170.897 2.79281 171.223 2.33786 171.646 1.94323C172.069 1.54887 172.578 1.23352 173.173 0.996863C173.768 0.760469 174.424 0.642005 175.141 0.642005C175.815 0.642005 176.453 0.742363 177.055 0.943146C177.658 1.14393 178.188 1.40232 178.647 1.71741L177.873 3.17998C177.485 2.8935 177.045 2.66048 176.55 2.4811C176.055 2.30172 175.55 2.21213 175.034 2.21213C174.546 2.21213 174.112 2.28388 173.732 2.42712C173.352 2.57089 173.04 2.76057 172.796 2.99723C172.553 3.23389 172.366 3.51343 172.238 3.83598C172.109 4.15859 172.044 4.49931 172.044 4.85773C172.044 5.4028 172.248 5.90453 172.657 6.36311C173.065 6.82229 173.757 7.27394 174.732 7.71832C175.55 8.09127 176.231 8.4464 176.776 8.78288C177.32 9.11997 177.754 9.46789 178.077 9.82611C178.4 10.1848 178.626 10.572 178.755 10.9877C178.883 11.4037 178.948 11.8768 178.948 12.4072Z" fill="white"/>
<path d="M9.1874 11.6759C9.1874 13.3028 7.8686 14.6216 6.24164 14.6216C4.61469 14.6216 3.2959 13.3028 3.2959 11.6759C3.2959 10.0492 4.61469 8.73015 6.24164 8.73015C7.8686 8.73015 9.1874 10.0492 9.1874 11.6759Z" fill="#49B66D"/>
<path d="M20.726 9.7214L26.3382 0.00147897H3.63477L5.61632 3.43449H20.3907L13.0042 16.2295L14.9862 19.6629L19.0458 12.6323C23.8323 15.153 26.0074 20.9288 24.0013 26.0115C22.3782 30.1225 18.4703 32.7787 14.0432 32.7787C14.0432 32.7787 14.0427 32.7787 14.0422 32.7787C12.7014 32.7787 11.3852 32.527 10.1299 32.032C9.53759 31.7979 8.95308 31.4955 8.38423 31.1365L6.70178 34.0554C7.40403 34.4874 8.13905 34.8596 8.896 35.1582C10.5467 35.8093 12.2771 36.1396 14.0393 36.1396C19.8578 36.1396 24.9949 32.6486 27.1269 27.2457C29.7341 20.6405 26.9243 13.0628 20.726 9.7214Z" fill="white"/>
<path d="M5.76477 28.8126C3.35713 25.833 2.70005 21.7328 4.10995 18.1608L4.31023 17.6533L1.18408 16.4194L0.983809 16.9266C-1.05504 22.0929 0.135496 27.9103 3.99485 31.8804L5.76477 28.8126Z" fill="#49B66D"/>
<path d="M74.1569 28.2832C73.8556 28.2832 73.6124 28.3797 73.4288 28.5733C73.2451 28.7661 73.1321 29.0427 73.0898 29.4048H75.1334C75.1215 29.0368 75.0309 28.7578 74.8625 28.5681C74.6933 28.3781 74.4581 28.2832 74.1569 28.2832Z" fill="#49B66D"/>
<path d="M48.1155 26.5471H46.6416V28.645H48.1155C48.9171 28.645 49.3182 28.2956 49.3182 27.5957C49.3182 27.2403 49.2188 26.9768 49.0201 26.8047C48.8206 26.633 48.5197 26.5471 48.1155 26.5471Z" fill="#49B66D"/>
<path d="M53.5049 30.0559C53.2819 30.092 53.1221 30.1552 53.0259 30.2458C52.9294 30.3364 52.8809 30.46 52.8809 30.6167C52.8809 30.8095 52.9472 30.9677 53.0803 31.0913C53.2127 31.2149 53.3813 31.2769 53.5867 31.2769C53.8876 31.2769 54.1333 31.1759 54.3233 30.9736C54.5132 30.772 54.6082 30.5109 54.6082 30.1914V30.0014H54.4454C54.0414 30.0014 53.7279 30.0197 53.5049 30.0559Z" fill="#49B66D"/>
<path d="M84.8634 31.7287C84.5324 31.97 84.0825 32.0908 83.5163 32.0908C83.1245 32.0908 82.7644 32.042 82.4354 31.9457C82.107 31.8492 81.8282 31.7101 81.5996 31.53L81.9161 30.7431C82.3865 31.0868 82.9256 31.2582 83.5341 31.2582C83.7931 31.2582 83.9913 31.2164 84.1268 31.1317C84.2622 31.0471 84.3296 30.9271 84.3296 30.7704C84.3296 30.6373 84.2834 30.5351 84.1902 30.4628C84.0964 30.39 83.9292 30.3237 83.6881 30.2633L82.9646 30.1007C82.555 30.0104 82.2504 29.863 82.0515 29.6578C81.8527 29.4532 81.7529 29.1876 81.7529 28.8622C81.7529 28.5907 81.8302 28.3509 81.9835 28.1434C82.1374 27.9351 82.3508 27.7739 82.6257 27.659C82.8999 27.5449 83.2177 27.4876 83.5797 27.4876C83.8929 27.4876 84.1955 27.5361 84.4888 27.6327C84.7809 27.7289 85.0385 27.8644 85.2612 28.0394L84.9447 28.8077C84.4862 28.4766 84.029 28.3104 83.5705 28.3104C83.3227 28.3104 83.1305 28.3561 82.9917 28.4459C82.853 28.5362 82.7836 28.6627 82.7836 28.8263C82.7836 28.9468 82.8279 29.0462 82.9144 29.1241C83.0023 29.2031 83.143 29.2632 83.3353 29.3053L84.0865 29.4766C84.5265 29.5732 84.8482 29.7255 85.0537 29.9337C85.2585 30.1412 85.3609 30.4143 85.3609 30.7521C85.3609 31.1619 85.1951 31.4871 84.8634 31.7287ZM79.9981 28.4913C79.2515 28.5695 78.8776 28.9499 78.8776 29.6305V32.0177H77.7472V27.5958H78.8228V28.3736C79.052 27.843 79.5251 27.554 80.2426 27.5059L80.5861 27.4789L80.6581 28.4281L79.9981 28.4913ZM76.1007 30.0104H73.09C73.1263 30.4202 73.2492 30.7248 73.4606 30.9235C73.672 31.123 73.9726 31.2223 74.3651 31.2223C74.8533 31.2223 75.2993 31.0654 75.7036 30.7521L76.0287 31.53C75.8232 31.6985 75.5662 31.8337 75.2557 31.937C74.9445 32.0392 74.6327 32.0908 74.3202 32.0908C73.596 32.0908 73.0245 31.8853 72.6063 31.4755C72.1868 31.0654 71.978 30.5049 71.978 29.7931C71.978 29.3414 72.0685 28.9401 72.2496 28.5907C72.4293 28.2412 72.6843 27.9697 73.0133 27.777C73.341 27.5842 73.7136 27.4876 74.1292 27.4876C74.739 27.4876 75.2194 27.6833 75.5715 28.0755C75.925 28.467 76.1007 29.0064 76.1007 29.6937V30.0104ZM70.3507 32.0177H69.2203V29.3686C69.2203 29.0247 69.1549 28.7747 69.0254 28.618C68.8959 28.4611 68.6924 28.3824 68.4149 28.3824C68.0899 28.3824 67.8289 28.4853 67.6327 28.69C67.4371 28.8954 67.3393 29.1698 67.3393 29.5128V32.0177H66.2089V27.5958H67.3122V28.256C67.4629 28.0092 67.6644 27.8195 67.9174 27.6864C68.1711 27.554 68.4572 27.4876 68.777 27.4876C69.3069 27.4876 69.7026 27.6383 69.9616 27.9396C70.2206 28.2412 70.3507 28.6968 70.3507 29.3053V32.0177ZM64.7709 32.0539C64.59 32.0722 64.4243 32.081 64.2736 32.081C63.6532 32.081 63.1948 31.9383 62.8996 31.652C62.6038 31.3658 62.4567 30.939 62.4567 30.3722V28.4459H61.6058V27.5958H62.4567V26.2757H63.5871V27.5958H64.7534V28.4459H63.5871V30.3539C63.5871 30.9449 63.8607 31.2399 64.4096 31.2399C64.5423 31.2399 64.6806 31.2311 64.8257 31.2136L64.7709 32.0539ZM59.8067 28.4913C59.0598 28.5695 58.6859 28.9499 58.6859 29.6305V32.0177H57.5555V27.5958H58.6314V28.3736C58.8604 27.843 59.3334 27.554 60.0511 27.5059L60.3946 27.4789L60.4669 28.4281L59.8067 28.4913ZM55.6841 32.0177H54.6076V31.34C54.5052 31.5749 54.3442 31.7586 54.124 31.8913C53.9041 32.0237 53.6494 32.0908 53.3601 32.0908C53.0643 32.0908 52.7964 32.0304 52.5552 31.9096C52.3139 31.7888 52.1239 31.6234 51.9856 31.412C51.8464 31.2009 51.7773 30.9661 51.7773 30.7064C51.7773 30.3812 51.8604 30.125 52.0261 29.9381C52.1918 29.7513 52.4617 29.6158 52.8354 29.5312C53.2094 29.4465 53.7245 29.4046 54.3816 29.4046H54.6076V29.1964C54.6076 28.8954 54.5429 28.6781 54.4133 28.5457C54.2838 28.4134 54.068 28.3465 53.7671 28.3465C53.5317 28.3465 53.2858 28.3876 53.0298 28.4686C52.7738 28.5502 52.5221 28.6627 52.2749 28.8077L51.9585 28.0299C52.2057 27.8732 52.5036 27.7437 52.854 27.6414C53.2034 27.539 53.5346 27.4876 53.8481 27.4876C54.4694 27.4876 54.9305 27.6383 55.2317 27.9396C55.5334 28.2412 55.6841 28.7055 55.6841 29.3324V32.0177ZM49.8515 29.0247C49.4716 29.3686 48.9412 29.5399 48.2604 29.5399H46.6415V32.0177H45.4752V25.6426H48.2604C48.9412 25.6426 49.4716 25.8135 49.8515 26.1534C50.2311 26.4943 50.4211 26.9725 50.4211 27.587C50.4211 28.2022 50.2311 28.6812 49.8515 29.0247ZM92.4534 22.4641H37.9098C36.6429 22.4641 35.6162 23.491 35.6162 24.7577V33.3866C35.6162 34.6533 36.6429 35.6802 37.9098 35.6802H92.4534C93.72 35.6802 94.7467 34.6533 94.7467 33.3866V24.7577C94.7467 23.491 93.72 22.4641 92.4534 22.4641Z" fill="#49B66D"/>
</g>
<defs>
<clipPath id="clip0_917_126">
<rect width="178.948" height="36.1397" fill="white"/>
</clipPath>
</defs>
</svg>
