<svg preserveAspectRatio="none" width="100%" height="100%" overflow="visible" style="display: block;" viewBox="0 0 119 103" fill="none" xmlns="http://www.w3.org/2000/svg">
<g id="Frame">
<path id="Vector" fill-rule="evenodd" clip-rule="evenodd" d="M71.5661 42.7833C71.5387 40.7895 71.2792 38.7784 70.7599 36.7537C68.9391 29.6481 60.8154 25.0864 52.169 24.0138C43.526 22.9413 34.538 25.382 31.074 31.5628C29.0926 35.0967 28.8193 38.1425 29.6289 40.7104C30.4352 43.2645 32.3481 45.3821 34.9444 47.0321C42.1833 51.6282 54.861 52.5667 60.6446 50.6451C63.3195 49.7547 65.9328 48.6823 68.4778 47.455C67.0225 55.4888 61.601 63.0997 54.3655 69.9577C38.6408 84.8633 14.2389 96.1764 0.949913 100.336C0.235929 100.559 -0.160383 101.323 0.0616693 102.041C0.283722 102.759 1.0421 103.162 1.75609 102.938C15.3081 98.6962 40.1849 87.1424 56.2206 71.9412C64.5048 64.0897 70.408 55.2515 71.4158 45.9596C90.1434 35.8908 105.523 17.6233 118.672 2.25029C119.161 1.68308 119.096 0.820209 118.529 0.328629C117.961 -0.159514 117.107 -0.0976632 116.619 0.472982C104.006 15.217 89.3679 32.7557 71.5661 42.7833ZM68.8435 44.2443C68.9459 42.0029 68.7272 39.7272 68.1362 37.4309C66.5613 31.281 59.3224 27.644 51.8375 26.7158C47.2496 26.1486 42.5319 26.6162 38.8321 28.28C36.5057 29.325 34.5891 30.841 33.4345 32.9036C31.9177 35.609 31.5897 37.9225 32.2114 39.8854C32.8332 41.862 34.3775 43.4502 36.3896 44.7255C42.9863 48.916 54.5295 49.8064 59.7939 48.0566C62.8992 47.0253 65.9124 45.7396 68.8435 44.2443Z" fill="white"/>
</g>
</svg>
