<svg preserveAspectRatio="none" width="100%" height="100%" overflow="visible" style="display: block;" viewBox="0 0 21.8872 21.8671" fill="none" xmlns="http://www.w3.org/2000/svg">
<g id="path">
<path d="M20.1299 1.75736C17.8155 -0.557042 14.0732 -0.589561 11.719 1.68427L11.7086 1.6944L9.98862 3.4044C9.59696 3.79378 9.59511 4.42694 9.9845 4.8186C10.3739 5.21026 11.007 5.21211 11.3987 4.82273L13.1133 3.11811C14.6831 1.60701 17.1743 1.63025 18.7156 3.17157C20.2566 4.71257 20.2802 7.20307 18.7701 8.77293L15.7766 11.7665C14.956 12.5873 13.8194 13.0114 12.6617 12.9284C11.5041 12.8455 10.4396 12.2639 9.74443 11.3346C9.41362 10.8923 8.78693 10.802 8.34468 11.1328C7.90243 11.4636 7.81209 12.0903 8.1429 12.5325C9.18565 13.9266 10.7825 14.799 12.5189 14.9233C14.2553 15.0477 15.9601 14.4117 17.1909 13.1805L20.1908 10.1807L20.203 10.1683C22.4768 7.814 22.4443 4.07176 20.1299 1.75736Z" fill="#41683B"/>
<path d="M9.36835 6.94375C7.63198 6.8194 5.92721 7.4553 4.69645 8.68642L1.69645 11.6864L1.68427 11.6988C-0.589561 14.0531 -0.557042 17.7953 1.75736 20.1097C4.07176 22.4241 7.814 22.4567 10.1683 20.1828L10.1807 20.1706L11.8907 18.4606C12.2812 18.0701 12.2812 17.4369 11.8907 17.0464C11.5001 16.6559 10.867 16.6559 10.4765 17.0464L8.77293 18.7499C7.20307 20.2601 4.71257 20.2365 3.17157 18.6955C1.63058 17.1545 1.60702 14.664 3.11715 13.0942L6.1108 10.1005C6.9313 9.27971 8.06786 8.85574 9.22548 8.93864C10.3831 9.02155 11.4476 9.60316 12.1428 10.5325C12.4736 10.9748 13.1003 11.0651 13.5425 10.7343C13.9848 10.4035 14.0751 9.7768 13.7443 9.33455C12.7016 7.94052 11.1048 7.06811 9.36835 6.94375Z" fill="#41683B"/>
</g>
</svg>
