<svg preserveAspectRatio="none" width="100%" height="100%" overflow="visible" style="display: block;" viewBox="0 0 23.0001 22.0015" fill="none" xmlns="http://www.w3.org/2000/svg">
<g id="path">
<path d="M4.15851 5.15308C6.74818 2.12317 11.0223 1.15749 14.6631 2.77971C15.1675 3.00449 15.7587 2.77776 15.9835 2.27329C16.2083 1.76881 15.9815 1.17764 15.4771 0.952858C11.0272 -1.02986 5.80332 0.150414 2.63816 3.85364C-0.526988 7.55686 -0.87937 12.9009 1.77211 16.9876C4.42359 21.0744 9.44731 22.9304 14.1189 21.5491C18.7906 20.1679 21.9973 15.8778 22.0001 11.0063V10.0763C22.0001 9.524 21.5523 9.07629 21.0001 9.07629C20.4478 9.07629 20.0001 9.524 20.0001 10.0763V11.0057C19.9978 14.9915 17.3741 18.5011 13.5519 19.6312C9.72963 20.7613 5.61932 19.2428 3.44992 15.8991C1.28053 12.5554 1.56884 8.18299 4.15851 5.15308Z" fill="#52824A"/>
<path d="M22.7072 2.71339C23.0977 2.32287 23.0977 1.6897 22.7072 1.29918C22.3166 0.908655 21.6835 0.908655 21.293 1.29918L11.0001 11.5921L8.70717 9.29918C8.31664 8.90866 7.68348 8.90866 7.29295 9.29918C6.90243 9.6897 6.90243 10.3229 7.29295 10.7134L10.293 13.7134C10.6835 14.1039 11.3166 14.1039 11.7072 13.7134L22.7072 2.71339Z" fill="#52824A"/>
</g>
</svg>
