<svg preserveAspectRatio="none" width="100%" height="100%" overflow="visible" style="display: block;" viewBox="0 0 13.334 16" fill="none" xmlns="http://www.w3.org/2000/svg">
<g id="icon">
<path id="Union" d="M12.667 10.6665C13.0352 10.6665 13.334 10.9653 13.334 11.3335V13.3335C13.334 14.438 12.4384 15.3333 11.334 15.3335H2C0.89558 15.3333 0 14.438 0 13.3335V11.3335C2.00581e-05 10.9653 0.298815 10.6665 0.666992 10.6665C1.03517 10.6665 1.33396 10.9653 1.33398 11.3335V13.3335C1.33398 13.7016 1.63196 14.0003 2 14.0005H11.334C11.702 14.0003 12 13.7016 12 13.3335V11.3335C12 10.9653 12.2988 10.6665 12.667 10.6665ZM6.66699 0.666504C7.03517 0.666504 7.33396 0.965323 7.33398 1.3335V9.05713L8.8623 7.52881C9.1226 7.26854 9.54433 7.26865 9.80469 7.52881C10.065 7.78915 10.065 8.21084 9.80469 8.47119L7.13867 11.1382C7.13716 11.1397 7.13531 11.1416 7.13379 11.1431C7.01398 11.2605 6.84986 11.333 6.66895 11.3335H6.66504C6.57544 11.3332 6.49009 11.315 6.41211 11.2827C6.33541 11.251 6.26301 11.2047 6.2002 11.1431C6.19867 11.1416 6.19682 11.1397 6.19531 11.1382L3.5293 8.47119C3.26897 8.21084 3.26895 7.78915 3.5293 7.52881C3.78965 7.26865 4.21139 7.26854 4.47168 7.52881L6 9.05713V1.3335C6.00002 0.965323 6.29881 0.666504 6.66699 0.666504Z" fill="#41683B"/>
</g>
</svg>
