<svg preserveAspectRatio="none" width="100%" height="100%" overflow="visible" style="display: block;" viewBox="0 0 22 22" fill="none" xmlns="http://www.w3.org/2000/svg">
<g id="path">
<path fill-rule="evenodd" clip-rule="evenodd" d="M11.7766 6.0108C9.64293 5.69439 7.54684 6.78201 6.57705 8.70876C5.60727 10.6355 5.98243 12.967 7.50769 14.4922C9.03296 16.0175 11.3644 16.3927 13.2912 15.4229C15.2179 14.4531 16.3055 12.357 15.9891 10.2233C15.6661 8.04457 13.9554 6.33387 11.7766 6.0108ZM8.36352 9.60794C8.94539 8.45189 10.203 7.79932 11.4833 7.98916C12.7905 8.18301 13.8169 9.20943 14.0108 10.5167C14.2006 11.7969 13.548 13.0545 12.392 13.6364C11.2359 14.2183 9.83706 13.9932 8.92191 13.078C8.00675 12.1629 7.78165 10.764 8.36352 9.60794Z" fill="white" fill-opacity="0.88"/>
<path fill-rule="evenodd" clip-rule="evenodd" d="M6 0C2.68629 0 0 2.68629 0 6V16C0 19.3137 2.68629 22 6 22H16C19.3137 22 22 19.3137 22 16V6C22 2.68629 19.3137 0 16 0H6ZM2 6C2 3.79086 3.79086 2 6 2H16C18.2091 2 20 3.79086 20 6V16C20 18.2091 18.2091 20 16 20H6C3.79086 20 2 18.2091 2 16V6Z" fill="white" fill-opacity="0.88"/>
</g>
</svg>
