<svg preserveAspectRatio="none" width="100%" height="100%" overflow="visible" style="display: block;" viewBox="0 0 24.0002 19.944" fill="none" xmlns="http://www.w3.org/2000/svg">
<path id="path" fill-rule="evenodd" clip-rule="evenodd" d="M20.1329 1.39534C18.6197 0.0411069 16.458 -0.377053 14.5256 0.360501C12.3888 1.17608 10.9845 3.23227 10.9998 5.51681C8.13308 5.3017 5.49005 3.81585 3.81846 1.4356C3.61142 1.14078 3.2618 0.980116 2.90324 1.01501C2.54468 1.04991 2.2326 1.27497 2.08629 1.60417L3.0001 2.01031C2.08629 1.60417 2.08608 1.60465 2.08585 1.60517L2.08531 1.60637L2.08398 1.60941L2.08023 1.61797L2.06866 1.6449C2.0592 1.66715 2.04631 1.69796 2.03054 1.73689C1.99901 1.81472 1.95587 1.92519 1.90538 2.06484C1.80452 2.34381 1.67368 2.74108 1.54758 3.22868C1.29658 4.19921 1.05781 5.55259 1.12613 7.05572C1.19466 8.56321 1.57353 10.2419 2.57716 11.8266C3.32952 13.0146 4.41169 14.1157 5.91484 15.0433C4.39647 15.7428 2.72666 16.0782 1.03985 16.0111C0.577127 15.9927 0.162301 16.2944 0.0372519 16.7403C-0.0877967 17.1862 0.109649 17.6596 0.51446 17.8845C5.29097 20.5381 10.651 20.5628 14.845 18.3306C19.0632 16.0853 22.0001 11.6102 22.0001 5.51031L22.0001 5.507C21.9996 5.34475 21.9918 5.18268 21.977 5.02128C22.9426 3.94988 23.6292 2.65345 23.9717 1.24693C24.0703 0.841928 23.9074 0.418228 23.5628 0.183664C23.2183 -0.0508994 22.7643 -0.0471212 22.4237 0.193146C21.7153 0.692846 20.945 1.09683 20.1329 1.39534ZM3.4047 4.05412C3.22103 4.85545 3.07438 5.87164 3.12407 6.9649C3.18055 8.20741 3.48918 9.52869 4.2668 10.7565C5.04039 11.978 6.31614 13.1676 8.40624 14.0965C8.73805 14.244 8.96384 14.5597 8.99614 14.9214C9.02844 15.283 8.86216 15.6338 8.56173 15.8377C7.4508 16.5918 6.2343 17.1591 4.9602 17.526C8.13037 18.3337 11.3071 17.9479 13.9053 16.5651C17.4366 14.6855 19.9996 10.9112 20.0001 5.51198C19.9993 5.29588 19.9785 5.08032 19.9379 4.86806C19.8752 4.5402 19.9803 4.20269 20.2179 3.9683C20.4407 3.74862 20.647 3.51447 20.8358 3.26781C20.6093 3.35136 20.3801 3.42809 20.1484 3.49784C19.7718 3.61125 19.3637 3.49334 19.1055 3.19655C18.1473 2.09471 16.603 1.70831 15.2388 2.22902C13.8745 2.74973 12.9804 4.06678 13 5.5269L13.0002 5.54031H13.0001V6.54031C13.0001 7.0825 12.568 7.52592 12.026 7.53997C8.76555 7.62452 5.65055 6.34115 3.4047 4.05412Z" fill="white" fill-opacity="0.88"/>
</svg>
